<svg _ngcontent-iri-c169="" width="20" height="20" viewBox="0 0 20 20" fill="none" xmlns="http://www.w3.org/2000/svg"><path _ngcontent-iri-c169="" d="M1.5 16C1.22386 16 1 16.2239 1 16.5C1 16.7761 1.22386 17 1.5 17V16ZM18.5 17C18.7761 17 19 16.7761 19 16.5C19 16.2239 18.7761 16 18.5 16V17ZM6.5 9C6.5 9.27614 6.72386 9.5 7 9.5C7.27614 9.5 7.5 9.27614 7.5 9H6.5ZM12.5 9C12.5 9.27614 12.7239 9.5 13 9.5C13.2761 9.5 13.5 9.27614 13.5 9H12.5ZM0.5 19C0.5 19.2761 0.723858 19.5 1 19.5C1.27614 19.5 1.5 19.2761 1.5 19H0.5ZM18.5 19C18.5 19.2761 18.7239 19.5 19 19.5C19.2761 19.5 19.5 19.2761 19.5 19H18.5ZM1.5 17H18.5V16H1.5V17ZM3.5 9V3H2.5V9H3.5ZM5 1.5H15V0.5H5V1.5ZM16.5 3V9H17.5V3H16.5ZM3 9.5H17V8.5H3V9.5ZM15 1.5C15.8284 1.5 16.5 2.17157 16.5 3H17.5C17.5 1.61929 16.3807 0.5 15 0.5V1.5ZM3.5 3C3.5 2.17157 4.17157 1.5 5 1.5V0.5C3.61929 0.5 2.5 1.61929 2.5 3H3.5ZM7.5 9V7H6.5V9H7.5ZM8 6.5H12V5.5H8V6.5ZM12.5 7V9H13.5V7H12.5ZM12 6.5C12.2761 6.5 12.5 6.72386 12.5 7H13.5C13.5 6.17157 12.8284 5.5 12 5.5V6.5ZM7.5 7C7.5 6.72386 7.72386 6.5 8 6.5V5.5C7.17157 5.5 6.5 6.17157 6.5 7H7.5ZM1.5 19V11H0.5V19H1.5ZM18.5 11V19H19.5V11H18.5ZM17 9.5C17.8284 9.5 18.5 10.1716 18.5 11H19.5C19.5 9.61929 18.3807 8.5 17 8.5V9.5ZM1.5 11C1.5 10.1716 2.17157 9.5 3 9.5V8.5C1.61929 8.5 0.5 9.61929 0.5 11H1.5Z" fill="#808080"></path></svg>
